<?xml version="1.0" standalone="no"?>
<!DOCTYPE svg PUBLIC "-//W3C//DTD SVG 20010904//EN"
 "http://www.w3.org/TR/2001/REC-SVG-20010904/DTD/svg10.dtd">
<svg version="1.0" xmlns="http://www.w3.org/2000/svg"
 width="320.000000pt" height="320.000000pt" viewBox="0 0 320.000000 320.000000"
 preserveAspectRatio="xMidYMid meet">
<metadata>
Created by potrace 1.11, written by Peter Selinger 2001-2013
</metadata>
<g transform="translate(0.000000,320.000000) scale(0.100000,-0.100000)"
fill="#000000" stroke="none">
<path d="M1677 3059 c-89 -21 -211 -105 -268 -183 l-32 -46 -34 21 c-153 95
-325 116 -456 56 -157 -72 -247 -230 -247 -432 l0 -75 -33 0 c-51 0 -145 -28
-208 -62 -74 -39 -153 -121 -186 -195 -70 -152 -26 -360 105 -495 l36 -38 -36
-37 c-131 -136 -175 -344 -105 -496 33 -73 112 -156 185 -195 62 -33 161 -62
211 -62 l31 0 0 -75 c0 -202 90 -360 247 -432 131 -60 303 -39 456 56 l34 21
32 -46 c76 -105 213 -183 339 -191 200 -14 363 103 438 315 13 37 29 66 35 64
6 -2 47 -8 90 -14 363 -51 605 267 465 612 l-22 57 55 29 c130 68 228 196 253
332 32 170 -76 364 -253 456 l-55 29 22 57 c140 344 -103 663 -465 612 -43 -6
-84 -12 -90 -14 -7 -2 -20 21 -31 54 -74 235 -291 369 -513 317z m228 -126
c82 -43 173 -165 191 -258 5 -29 2 -33 -73 -82 -97 -63 -209 -174 -274 -271
-27 -41 -49 -67 -49 -59 0 35 -54 198 -90 272 -22 44 -64 112 -94 151 -53 69
-54 72 -39 95 45 67 131 138 201 164 53 21 176 14 227 -12z m-734 -119 c36
-12 126 -60 147 -79 2 -2 -5 -29 -17 -60 -44 -116 -63 -328 -42 -456 l7 -46
-44 33 c-117 90 -273 161 -407 186 l-67 12 4 96 c3 84 8 105 36 163 73 148
215 204 383 151z m282 -227 c19 -30 46 -76 60 -103 57 -112 105 -323 94 -416
-5 -51 -50 -228 -57 -228 -7 0 -109 151 -133 195 -10 19 -28 79 -39 132 -16
80 -19 122 -15 228 5 122 28 245 47 245 4 0 23 -24 43 -53z m1073 -16 c97 -43
168 -141 181 -250 6 -54 -10 -143 -39 -207 l-19 -45 -47 8 c-26 4 -108 8 -182
7 -126 0 -226 -16 -313 -50 -12 -4 -7 15 24 80 53 114 89 257 92 368 l2 88 30
9 c59 19 71 20 146 17 50 -3 93 -11 125 -25z m-411 -118 c-23 -213 -149 -467
-272 -548 -32 -21 -78 -54 -102 -73 l-43 -35 6 39 c4 21 10 80 15 129 7 75 14
103 46 165 74 148 161 255 273 340 37 27 71 50 76 50 4 0 5 -30 1 -67z m-1445
-171 c0 -9 22 -63 50 -119 52 -105 134 -218 212 -289 l45 -41 -83 -6 c-126 -9
-250 -42 -360 -97 l-99 -49 -38 42 c-65 72 -100 150 -105 240 -4 71 -2 82 27
142 46 93 131 153 255 180 84 18 96 18 96 -3z m225 -24 c78 -25 192 -87 263
-142 106 -82 156 -144 209 -257 l50 -106 -61 19 c-33 11 -83 24 -111 30 -134
29 -360 250 -440 432 l-25 56 28 -6 c15 -4 54 -15 87 -26z m1671 -290 c17 -26
-163 -165 -290 -224 -135 -62 -204 -75 -349 -68 l-129 7 84 84 c46 47 103 95
128 108 61 31 182 74 255 90 78 17 291 19 301 3z m234 -87 c143 -99 195 -256
129 -396 -30 -63 -111 -143 -179 -177 l-55 -26 -35 41 c-87 103 -235 212 -349
257 -33 14 -61 27 -61 30 0 3 28 16 61 30 96 38 226 129 309 217 86 91 84 90
180 24z m-1559 -214 c53 -26 101 -47 108 -47 6 0 11 -4 11 -10 0 -5 -5 -10
-11 -10 -7 0 -55 -21 -108 -47 l-96 -46 -131 -5 c-99 -3 -153 0 -215 13 -107
21 -244 75 -244 95 0 9 30 27 80 47 129 51 201 63 365 59 l145 -3 96 -46z
m889 -138 c144 -40 280 -115 394 -220 42 -38 54 -54 44 -60 -21 -14 -210 -10
-290 5 -76 15 -195 55 -263 88 -22 11 -80 59 -128 106 l-88 87 83 6 c153 10
173 9 248 -12z m-1590 -42 c109 -53 227 -84 350 -93 l86 -7 -53 -50 c-105 -99
-208 -257 -245 -375 l-13 -42 -50 6 c-154 20 -275 109 -316 232 -19 57 -6 168
26 232 29 57 103 153 114 147 3 -1 49 -24 101 -50z m828 -124 c-54 -116 -104
-176 -210 -259 -96 -75 -233 -141 -350 -168 l-28 -6 25 56 c40 90 107 183 192
265 108 105 182 152 272 173 60 15 92 24 148 45 1 1 -21 -47 -49 -106z m475
-48 c93 -61 190 -221 240 -395 26 -91 44 -220 30 -220 -4 0 -38 23 -75 50
-112 85 -199 192 -273 340 -32 62 -39 90 -46 165 -5 50 -11 108 -15 129 l-6
39 43 -35 c24 -19 70 -52 102 -73z m-264 -28 c13 -50 26 -111 28 -135 10 -88
-36 -300 -89 -407 -24 -50 -101 -165 -109 -165 -18 0 -41 126 -46 245 -4 106
-1 148 15 228 11 53 29 113 39 132 24 44 126 195 133 195 3 0 16 -42 29 -93z
m626 -129 c92 -25 281 -34 369 -19 39 7 73 8 78 3 24 -24 51 -131 52 -207 1
-96 -23 -157 -86 -222 -62 -64 -124 -87 -233 -88 -49 0 -106 6 -125 12 l-35
13 -3 90 c-3 113 -38 252 -91 365 -38 80 -39 86 -18 79 12 -4 54 -16 92 -26z
m-946 -155 c-21 -130 -2 -341 42 -458 25 -66 26 -64 -76 -115 -178 -89 -356
-38 -437 127 -28 58 -33 79 -36 163 l-4 96 66 12 c103 19 228 69 323 129 49
30 97 63 108 74 11 10 20 19 21 19 0 0 -3 -21 -7 -47z m612 -250 c65 -65 115
-104 203 -157 24 -15 27 -22 22 -49 -19 -94 -109 -217 -191 -260 -59 -31 -192
-31 -256 1 -56 27 -123 83 -160 135 l-28 39 55 71 c30 40 72 108 94 152 36 74
90 237 90 272 0 8 22 -18 49 -59 27 -40 82 -106 122 -145z"/>
</g>
</svg>
